<svg xmlns="http://www.w3.org/2000/svg" viewBox="0 0 500 450.73"><defs><style>.cls-1{fill:#00a79d;}</style></defs><g id="Layer_2" data-name="Layer 2"><g id="Layer_2-2" data-name="Layer 2"><path class="cls-1" d="M240.19,152.33a81.63,81.63,0,0,0-26.32,8.85,73.69,73.69,0,0,0-23.76,19.25l-1.61-2.55L126.09,79a192.71,192.71,0,0,0,13.25,305.22v66.52a247.11,247.11,0,0,1-48.16-31.14q-9.34-7.68-18-16.3a249.86,249.86,0,0,1,0-353.57,253.12,253.12,0,0,1,22-19.6A248.57,248.57,0,0,1,144.06,0L175,49l63.54,100.67Z"/><path class="cls-1" d="M210.84,205.81a25.57,25.57,0,0,0-1.7,4.79l-2-3.23a25.73,25.73,0,0,1,1.15-2.81,44,44,0,0,1,19.82-20.13,41.46,41.46,0,0,1,29.86-4l2.33,3.67a36.55,36.55,0,0,0-7-1.64,35.81,35.81,0,0,0-5.16-.36A40.06,40.06,0,0,0,229.41,187,41.29,41.29,0,0,0,210.84,205.81Z"/><polygon class="cls-1" points="268.19 196.71 217.27 223.47 216.1 221.63 215.73 221.04 266.66 194.28 268.19 196.71"/><polygon class="cls-1" points="283.16 220.44 232.24 247.2 230.72 244.77 281.63 218.01 283.16 220.44"/><path class="cls-1" d="M293.89,237.44a48.78,48.78,0,0,1-23.8,27.06c-7.95,4.17-15.76,6.09-23.32,5.75l-1.89-3c7.66.81,15.67-1,23.87-5.27a46.16,46.16,0,0,0,23.12-27.42l.07-.2Z"/><path class="cls-1" d="M500,226.5a249.41,249.41,0,0,1-73.21,176.79q-8.62,8.63-18,16.3a247.88,247.88,0,0,1-48.16,31.14l-30.85-48.86-64.5-102.23-1.61-2.54a86.82,86.82,0,0,0,19.79-7.63c12.27-6.45,21.88-14.26,28.55-23.24l1.63,2.6,64.22,101.74a192.67,192.67,0,0,0-4-291.58,194.28,194.28,0,0,0-18-13.44V.06l0,0a248.93,248.93,0,0,1,48.81,30.11,254.47,254.47,0,0,1,22,19.6A249.36,249.36,0,0,1,500,226.5Z"/><path class="cls-1" d="M275.75,190.65a36.8,36.8,0,0,0-17.81-10.18,41.46,41.46,0,0,0-29.86,4,44,44,0,0,0-19.82,20.13,25.73,25.73,0,0,0-1.15,2.81c-1.79,5.19-2.46,12-2,20.21l.13,2.22,12-6.33,50.93-26.76,8.88-4.68Zm-9.09,3.63L215.73,221l-7.86,4.13a53.26,53.26,0,0,1,1.27-14.57,25.57,25.57,0,0,1,1.7-4.79A41.29,41.29,0,0,1,229.41,187a40.06,40.06,0,0,1,18.71-4.82,35.81,35.81,0,0,1,5.16.36,36.55,36.55,0,0,1,7,1.64,33.64,33.64,0,0,1,12,7.17Zm9.09-3.63a36.8,36.8,0,0,0-17.81-10.18,41.46,41.46,0,0,0-29.86,4,44,44,0,0,0-19.82,20.13,25.73,25.73,0,0,0-1.15,2.81c-1.79,5.19-2.46,12-2,20.21l.13,2.22,12-6.33,50.93-26.76,8.88-4.68Zm-9.09,3.63L215.73,221l-7.86,4.13a53.26,53.26,0,0,1,1.27-14.57,25.57,25.57,0,0,1,1.7-4.79A41.29,41.29,0,0,1,229.41,187a40.06,40.06,0,0,1,18.71-4.82,35.81,35.81,0,0,1,5.16.36,36.55,36.55,0,0,1,7,1.64,33.64,33.64,0,0,1,12,7.17Zm9.09-3.63a36.8,36.8,0,0,0-17.81-10.18,41.46,41.46,0,0,0-29.86,4,44,44,0,0,0-19.82,20.13,25.73,25.73,0,0,0-1.15,2.81c-1.79,5.19-2.46,12-2,20.21l.13,2.22,12-6.33,50.93-26.76,8.88-4.68Zm-9.09,3.63L215.73,221l-7.86,4.13a53.26,53.26,0,0,1,1.27-14.57,25.57,25.57,0,0,1,1.7-4.79A41.29,41.29,0,0,1,229.41,187a40.06,40.06,0,0,1,18.71-4.82,35.81,35.81,0,0,1,5.16.36,36.55,36.55,0,0,1,7,1.64,33.64,33.64,0,0,1,12,7.17Zm9.09-3.63a36.8,36.8,0,0,0-17.81-10.18,41.46,41.46,0,0,0-29.86,4,44,44,0,0,0-19.82,20.13,25.73,25.73,0,0,0-1.15,2.81c-1.79,5.19-2.46,12-2,20.21l.13,2.22,12-6.33,50.93-26.76,8.88-4.68Zm-9.09,3.63L215.73,221l-7.86,4.13a53.26,53.26,0,0,1,1.27-14.57,25.57,25.57,0,0,1,1.7-4.79A41.29,41.29,0,0,1,229.41,187a40.06,40.06,0,0,1,18.71-4.82,35.81,35.81,0,0,1,5.16.36,36.55,36.55,0,0,1,7,1.64,33.64,33.64,0,0,1,12,7.17Zm25.52,39.32-.24.74-.07.2A46.16,46.16,0,0,1,268.75,262c-8.2,4.31-16.21,6.08-23.87,5.27a32.73,32.73,0,0,1-3.55-.55,36.26,36.26,0,0,1-21-13.24l11.88-6.24,50.92-26.77,36.68-19.27,1.25-.66-3.67-7.32c-11-21-26.4-34.77-45.68-41a69.83,69.83,0,0,0-33.22-2.51,84.92,84.92,0,0,0-26,9,76.59,76.59,0,0,0-24,19.24,71.13,71.13,0,0,0-13.06,24.93c-5.78,19.39-3.54,39,6.64,58.4,9.95,18.93,24.7,31.56,43.87,37.54A70.32,70.32,0,0,0,247.06,302a72.47,72.47,0,0,0,18.27-2.38A89.28,89.28,0,0,0,284.84,292c12.25-6.44,22-14.24,28.85-23.18.32-.41.62-.81.92-1.22,7-9.49,11.37-20.91,13.07-33.93l.22-1.69Zm20.12,32.32-.24.31c-6.67,9-16.28,16.79-28.55,23.24a86.82,86.82,0,0,1-19.79,7.63,67.79,67.79,0,0,1-36.9-1.07c-18.43-5.77-32.62-17.93-42.2-36.15-9.81-18.68-12-37.61-6.44-56.25a68.15,68.15,0,0,1,11.93-23.2,73.69,73.69,0,0,1,23.76-19.25,81.63,81.63,0,0,1,26.32-8.85,67,67,0,0,1,30.67,2.58c18.54,6,33.35,19.31,44,39.57l2.39,4.81L281.63,218l-50.91,26.76L216,252.49l1,1.35c6.32,8.39,14.29,13.65,23.7,15.65a38.24,38.24,0,0,0,6,.76c7.56.34,15.37-1.58,23.32-5.75a48.78,48.78,0,0,0,23.8-27.06c.14-.34.26-.7.39-1.06L324.6,235A68.92,68.92,0,0,1,312.3,265.92Zm-44.1-69.21,8.88-4.68-1.33-1.38a36.8,36.8,0,0,0-17.81-10.18,41.46,41.46,0,0,0-29.86,4,44,44,0,0,0-19.82,20.13,25.73,25.73,0,0,0-1.15,2.81c-1.79,5.19-2.46,12-2,20.21l.13,2.22,12-6.33Zm-60.33,28.46a53.26,53.26,0,0,1,1.27-14.57,25.57,25.57,0,0,1,1.7-4.79A41.29,41.29,0,0,1,229.41,187a40.06,40.06,0,0,1,18.71-4.82,35.81,35.81,0,0,1,5.16.36,36.55,36.55,0,0,1,7,1.64,33.64,33.64,0,0,1,12,7.17l-5.65,3L215.73,221Zm67.88-34.52a36.8,36.8,0,0,0-17.81-10.18,41.46,41.46,0,0,0-29.86,4,44,44,0,0,0-19.82,20.13,25.73,25.73,0,0,0-1.15,2.81c-1.79,5.19-2.46,12-2,20.21l.13,2.22,12-6.33,50.93-26.76,8.88-4.68Zm-9.09,3.63L215.73,221l-7.86,4.13a53.26,53.26,0,0,1,1.27-14.57,25.57,25.57,0,0,1,1.7-4.79A41.29,41.29,0,0,1,229.41,187a40.06,40.06,0,0,1,18.71-4.82,35.81,35.81,0,0,1,5.16.36,36.55,36.55,0,0,1,7,1.64,33.64,33.64,0,0,1,12,7.17Zm9.09-3.63a36.8,36.8,0,0,0-17.81-10.18,41.46,41.46,0,0,0-29.86,4,44,44,0,0,0-19.82,20.13,25.73,25.73,0,0,0-1.15,2.81c-1.79,5.19-2.46,12-2,20.21l.13,2.22,12-6.33,50.93-26.76,8.88-4.68Zm-9.09,3.63L215.73,221l-7.86,4.13a53.26,53.26,0,0,1,1.27-14.57,25.57,25.57,0,0,1,1.7-4.79A41.29,41.29,0,0,1,229.41,187a40.06,40.06,0,0,1,18.71-4.82,35.81,35.81,0,0,1,5.16.36,36.55,36.55,0,0,1,7,1.64,33.64,33.64,0,0,1,12,7.17Zm9.09-3.63a36.8,36.8,0,0,0-17.81-10.18,41.46,41.46,0,0,0-29.86,4,44,44,0,0,0-19.82,20.13,25.73,25.73,0,0,0-1.15,2.81c-1.79,5.19-2.46,12-2,20.21l.13,2.22,12-6.33,50.93-26.76,8.88-4.68Zm-9.09,3.63L215.73,221l-7.86,4.13a53.26,53.26,0,0,1,1.27-14.57,25.57,25.57,0,0,1,1.7-4.79A41.29,41.29,0,0,1,229.41,187a40.06,40.06,0,0,1,18.71-4.82,35.81,35.81,0,0,1,5.16.36,36.55,36.55,0,0,1,7,1.64,33.64,33.64,0,0,1,12,7.17Zm9.09-3.63a36.8,36.8,0,0,0-17.81-10.18,41.46,41.46,0,0,0-29.86,4,44,44,0,0,0-19.82,20.13,25.73,25.73,0,0,0-1.15,2.81c-1.79,5.19-2.46,12-2,20.21l.13,2.22,12-6.33,50.93-26.76,8.88-4.68Zm-9.09,3.63L215.73,221l-7.86,4.13a53.26,53.26,0,0,1,1.27-14.57,25.57,25.57,0,0,1,1.7-4.79A41.29,41.29,0,0,1,229.41,187a40.06,40.06,0,0,1,18.71-4.82,35.81,35.81,0,0,1,5.16.36,36.55,36.55,0,0,1,7,1.64,33.64,33.64,0,0,1,12,7.17Z"/></g></g></svg>